<?xml version="1.0" standalone="no"?>
<!DOCTYPE svg PUBLIC "-//W3C//DTD SVG 20010904//EN"
 "http://www.w3.org/TR/2001/REC-SVG-20010904/DTD/svg10.dtd">
<svg version="1.0" xmlns="http://www.w3.org/2000/svg"
 width="800" height="800" viewBox="0 0 300.000000 300.000000"
 preserveAspectRatio="xMidYMid meet">
<metadata>
Created by potrace 1.10, written by Peter Selinger 2001-2011
</metadata>
<g transform="translate(0.000000,300.000000) scale(0.100000,-0.100000)"
fill="#000000" stroke="none">
<path d="M1517 2480 c-110 -28 -201 -103 -250 -208 -30 -62 -32 -75 -32 -172
0 -166 24 -203 288 -445 84 -77 87 -82 87 -123 0 -74 -41 -135 -96 -143 -64
-10 -107 38 -104 119 1 26 1 53 1 60 -2 20 -224 17 -241 -3 -8 -10 -13 -48
-14 -103 -1 -109 21 -160 95 -231 29 -27 55 -49 58 -48 3 1 34 -5 69 -12 235
-51 445 94 482 334 12 74 7 128 -17 185 -21 52 1 24 43 -55 35 -66 38 -75 37
-155 -1 -87 -27 -183 -59 -214 -8 -8 -14 -18 -14 -22 0 -4 -11 -17 -25 -30
-91 -84 -178 -117 -296 -110 -65 3 -91 10 -149 39 -75 38 -94 35 -32 -5 68
-44 102 -53 207 -53 87 0 107 4 158 27 79 37 158 115 191 187 52 117 58 230
15 318 -26 53 -129 164 -259 278 -85 74 -95 87 -98 120 -5 78 38 155 93 167
19 5 19 5 2 13 -27 12 -65 -13 -94 -62 -25 -43 -27 -77 -9 -128 5 -12 -6 -5
-28 19 -40 43 -51 79 -41 136 8 47 53 100 87 101 82 4 103 -18 103 -114 l1
-72 122 -3 121 -3 7 26 c8 31 0 192 -11 220 -4 11 4 4 17 -15 44 -62 59 -118
56 -205 l-3 -80 -100 -3 -101 -3 -11 28 c-11 28 -12 27 -10 -11 l2 -39 115 2
c63 1 119 6 123 10 5 5 9 49 9 98 0 119 -18 159 -119 262 -97 99 -146 123
-258 127 -44 2 -97 -1 -118 -6z m212 -31 c68 -22 130 -77 162 -146 27 -59 30
-190 4 -209 -10 -8 -21 -11 -25 -9 -3 2 -41 5 -83 6 -43 2 -78 8 -80 13 -2 6
-5 31 -6 56 -3 46 -22 93 -43 106 -6 4 -29 11 -50 14 -102 19 -183 -123 -130
-226 17 -33 128 -147 223 -230 45 -39 107 -110 124 -144 14 -28 17 -52 13
-135 -4 -95 -7 -107 -41 -168 -68 -121 -174 -186 -315 -193 -90 -5 -149 13
-210 63 -23 19 -52 53 -64 76 -22 44 -32 136 -22 195 l6 32 99 0 c90 0 98 -2
94 -18 -2 -11 1 -40 7 -65 13 -65 67 -111 118 -102 49 9 89 42 111 89 37 81
16 141 -78 221 -139 119 -224 209 -255 272 -29 60 -30 66 -26 165 6 120 23
168 87 239 45 51 124 95 186 105 22 3 42 7 44 9 7 7 114 -4 150 -16z"/>
<path d="M1440 1490 l-25 -7 28 -8 c21 -6 27 -13 27 -35 0 -46 17 -44 23 3 4
27 2 44 -6 49 -14 9 -13 9 -47 -2z"/>
</g>
</svg>
