<?xml version="1.0" standalone="no"?>
<!DOCTYPE svg PUBLIC "-//W3C//DTD SVG 20010904//EN"
 "http://www.w3.org/TR/2001/REC-SVG-20010904/DTD/svg10.dtd">
<svg version="1.0" xmlns="http://www.w3.org/2000/svg"
 width="2439.000000pt" height="2439.000000pt" viewBox="0 0 2439.000000 2439.000000"
 preserveAspectRatio="xMidYMid meet">
<metadata>
Created by potrace 1.10, written by Peter Selinger 2001-2011
</metadata>
<g transform="translate(0.000000,2439.000000) scale(0.100000,-0.100000)"
fill="#000000" stroke="none">
<path d="M7095 22079 c-287 -36 -429 -76 -650 -186 -107 -53 -111 -55 -200
-115 -155 -103 -306 -255 -415 -414 -27 -41 -50 -76 -50 -79 0 -2 -13 -24 -30
-48 -16 -25 -30 -49 -30 -53 0 -8 -40 -95 -76 -166 -8 -14 -14 -35 -14 -45 0
-10 -4 -23 -9 -28 -21 -22 -71 -253 -91 -420 -20 -163 -3 -510 29 -618 5 -18
17 -59 26 -92 9 -33 23 -73 30 -90 7 -16 23 -55 35 -85 12 -29 33 -71 46 -92
13 -21 24 -42 24 -46 0 -5 14 -28 30 -50 17 -23 30 -44 30 -46 0 -3 21 -35 47
-73 67 -99 208 -258 304 -343 46 -41 131 -120 189 -176 58 -56 143 -134 190
-175 47 -41 87 -77 88 -81 2 -5 13 -8 24 -8 15 0 18 -4 13 -21 -6 -18 -4 -20
16 -14 18 6 21 4 16 -9 -5 -12 0 -16 16 -16 12 -1 33 -14 47 -30 13 -17 30
-30 37 -30 7 0 13 -7 13 -15 0 -8 7 -15 15 -15 8 0 15 -9 15 -20 0 -14 6 -20
17 -18 10 2 18 -3 18 -12 1 -8 6 -14 12 -13 12 3 133 -107 243 -218 66 -68
112 -157 134 -262 21 -99 20 -140 -3 -257 -27 -144 -93 -264 -193 -357 -51
-46 -121 -93 -140 -93 -7 0 -26 -7 -43 -16 -22 -12 -57 -16 -135 -16 -99 0
-109 2 -165 32 -63 34 -131 92 -146 125 -5 11 -13 27 -19 35 -9 16 -33 70 -45
105 -15 47 -25 236 -14 282 17 73 28 183 22 220 -11 63 -7 63 -548 63 -349 0
-492 -3 -508 -12 -48 -25 -71 -84 -82 -211 -3 -45 -13 -114 -21 -154 -18 -94
-18 -315 0 -396 8 -34 19 -87 24 -117 30 -161 106 -330 217 -478 80 -108 134
-161 245 -243 41 -31 91 -71 110 -90 19 -19 46 -35 60 -35 14 -1 41 -7 60 -14
82 -30 108 -39 160 -53 131 -37 214 -50 405 -66 145 -11 487 13 534 39 11 5
30 10 43 10 45 0 292 91 378 139 8 5 35 19 60 31 41 21 128 77 140 91 3 3 22
15 43 28 20 12 37 26 37 30 0 4 9 12 20 17 56 25 328 328 363 404 4 8 16 29
27 45 20 32 82 156 108 215 8 19 18 42 22 50 4 9 11 30 15 49 4 18 13 44 21
59 8 15 14 36 14 47 0 10 6 37 14 60 51 149 85 462 68 632 -15 150 -27 226
-41 251 -6 11 -11 30 -11 41 0 11 -7 37 -16 58 -9 21 -24 54 -32 73 -8 19 -21
47 -29 62 -7 14 -13 33 -13 41 0 9 -5 17 -12 19 -6 2 -11 18 -10 36 0 22 -4
32 -14 32 -8 0 -14 5 -14 11 0 18 -100 129 -275 305 -153 154 -201 200 -344
324 -34 30 -77 68 -94 84 -18 16 -54 46 -82 68 -115 92 -234 203 -310 288 -22
25 -53 52 -69 60 -40 21 -200 184 -242 246 -88 134 -123 239 -123 379 -2 208
78 411 205 523 76 67 98 79 196 106 178 50 366 -29 451 -189 8 -16 25 -70 37
-120 24 -100 22 -205 -6 -359 -8 -43 -14 -99 -14 -125 0 -40 4 -50 29 -69 28
-21 35 -21 513 -22 453 0 485 1 518 19 69 36 72 49 102 402 14 164 -5 415 -40
530 -5 19 -18 61 -27 94 -9 33 -23 72 -31 87 -27 51 -7 96 23 51 6 -10 46 -67
87 -128 42 -60 76 -113 76 -118 0 -4 11 -23 23 -40 13 -18 32 -52 41 -77 10
-25 23 -54 31 -66 13 -20 43 -115 71 -223 23 -85 33 -232 30 -411 -4 -253 -18
-332 -66 -375 -21 -19 -40 -20 -427 -23 -503 -4 -472 -12 -492 131 -10 69 -23
97 -47 97 -8 0 -15 -20 -18 -57 -4 -32 -12 -89 -18 -126 -10 -63 -10 -70 9
-95 l20 -27 510 -3 509 -2 36 35 c33 33 36 42 42 113 3 42 10 102 15 132 12
69 12 426 1 500 -20 122 -28 166 -38 190 -5 14 -18 52 -28 85 -9 33 -24 67
-31 76 -7 8 -13 21 -13 27 0 12 -28 66 -61 117 -10 17 -22 37 -26 45 -16 36
-98 133 -165 194 -63 59 -76 67 -101 62 -24 -5 -27 -3 -23 12 4 12 -3 27 -20
43 -15 13 -54 60 -87 104 -72 93 -185 208 -261 265 -54 39 -202 130 -214 130
-3 0 -26 10 -51 22 -71 34 -186 65 -326 88 -38 6 -95 15 -126 21 -66 11 -276
10 -374 -2z m480 -123 c107 -21 179 -40 245 -65 30 -12 62 -21 70 -21 8 0 43
-18 78 -40 34 -22 66 -40 69 -40 3 0 31 -19 62 -41 143 -106 411 -418 411
-479 0 -10 7 -26 16 -35 10 -9 21 -33 25 -53 4 -20 18 -75 30 -122 21 -78 23
-108 22 -345 0 -277 -10 -359 -51 -415 -27 -36 -80 -42 -342 -43 -178 0 -236
3 -280 16 -30 9 -66 16 -80 16 -14 1 -49 1 -79 2 -29 0 -68 7 -86 15 -30 12
-33 18 -39 71 -3 32 -2 92 3 134 25 224 -105 501 -275 583 -21 10 -51 25 -65
32 -14 7 -62 14 -105 15 -167 2 -270 -30 -376 -118 -125 -104 -190 -222 -225
-408 -61 -320 19 -535 306 -826 9 -9 65 -69 124 -132 60 -64 148 -149 195
-189 48 -40 110 -93 139 -118 28 -25 76 -66 105 -91 135 -118 180 -159 273
-249 55 -53 141 -139 190 -191 89 -93 215 -250 215 -267 0 -5 9 -21 20 -35 49
-61 108 -235 130 -382 14 -90 8 -386 -8 -475 -6 -30 -16 -82 -22 -115 -6 -33
-17 -80 -24 -105 -33 -111 -69 -216 -77 -226 -5 -6 -16 -31 -24 -55 -29 -82
-74 -159 -202 -343 -48 -69 -268 -279 -334 -320 -35 -22 -73 -47 -84 -57 -18
-15 -182 -100 -230 -120 -11 -4 -42 -17 -69 -28 -27 -12 -56 -21 -65 -21 -9 0
-21 -4 -27 -10 -5 -5 -30 -14 -54 -19 -95 -19 -206 -39 -225 -40 -11 0 -58 -6
-105 -12 -167 -21 -553 14 -665 60 -114 48 -156 68 -193 92 -24 16 -45 29 -48
29 -14 0 -251 210 -282 250 -81 106 -150 214 -158 247 -4 15 -13 37 -19 48
-12 19 -54 146 -70 210 -14 58 -18 112 -19 285 -1 211 23 380 59 427 l23 28
401 3 400 3 32 -23 31 -23 -7 -76 c-11 -128 39 -374 96 -471 37 -65 108 -139
169 -178 60 -37 201 -81 270 -82 123 -3 290 89 403 221 71 83 135 223 166 366
17 73 6 246 -20 330 -39 128 -72 179 -197 304 -64 65 -146 141 -182 171 -36
30 -72 62 -80 71 -17 19 -156 138 -256 219 -96 78 -361 323 -478 443 -108 110
-246 286 -278 354 -11 23 -26 47 -34 54 -8 6 -14 17 -14 24 0 13 -42 95 -66
129 -8 11 -14 30 -14 41 0 11 -10 40 -21 65 -21 46 -29 78 -54 230 -28 163
-15 542 24 695 25 98 29 112 39 132 7 12 12 30 12 41 0 22 46 128 65 152 7 8
15 26 18 40 9 36 90 170 161 265 65 86 240 265 260 265 7 0 25 14 42 31 16 17
48 40 72 50 23 10 42 22 42 27 0 11 158 89 198 98 15 4 33 12 41 18 43 34 263
92 441 116 98 13 421 4 515 -14z"/>
<path d="M7365 20751 c-41 -8 -144 -59 -179 -89 -44 -39 -137 -167 -167 -229
-35 -74 -44 -104 -59 -207 -6 -38 -16 -76 -22 -83 -8 -10 -8 -17 0 -25 7 -7
12 -25 12 -41 0 -41 25 -134 51 -187 18 -38 23 -42 29 -26 3 11 1 54 -6 95
-10 63 -10 98 2 201 8 69 22 143 31 165 79 204 201 328 363 370 39 11 72 37
60 48 -11 10 -78 14 -115 8z"/>
<path d="M8240 18631 c0 -6 4 -13 10 -16 14 -8 128 -174 184 -267 71 -118 136
-255 130 -272 -3 -9 -1 -16 5 -16 19 0 34 -39 77 -200 19 -75 28 -372 14 -480
-6 -47 -11 -96 -11 -109 1 -13 -3 -29 -9 -35 -5 -7 -9 -21 -9 -31 -1 -46 -22
-145 -41 -189 -11 -26 -20 -55 -20 -64 0 -9 -9 -32 -20 -50 -11 -18 -20 -44
-20 -58 0 -13 -7 -27 -15 -30 -8 -4 -15 -12 -15 -19 0 -22 -81 -179 -119 -230
-20 -27 -43 -63 -51 -79 -23 -45 -201 -237 -251 -271 -24 -17 -59 -44 -78 -62
-18 -18 -53 -42 -77 -54 -24 -11 -44 -24 -44 -28 0 -14 -222 -117 -330 -153
-98 -33 -133 -43 -242 -67 -90 -20 -268 -33 -388 -28 -69 3 -144 6 -166 6 -23
0 -60 7 -83 14 -22 8 -50 12 -63 10 -13 -2 -57 7 -98 21 -41 14 -82 26 -90 26
-8 0 -37 12 -65 25 -27 14 -55 25 -62 25 -30 0 -304 166 -390 236 -38 31 -63
42 -63 28 0 -3 17 -27 37 -52 107 -136 345 -288 543 -346 30 -9 77 -23 103
-31 26 -8 62 -15 80 -15 18 -1 61 -7 97 -15 75 -17 418 -20 490 -5 25 5 78 14
119 20 75 10 92 14 187 44 29 9 57 16 64 16 7 0 28 7 48 16 21 8 51 21 67 28
100 42 279 137 295 156 3 3 19 15 36 25 77 49 289 248 352 330 66 87 123 170
142 208 11 23 25 49 30 57 8 13 21 41 86 187 8 17 14 40 14 50 0 10 5 24 10
29 16 16 50 143 70 264 6 36 17 90 23 120 17 78 16 480 -1 545 -7 28 -20 77
-28 110 -18 71 -26 91 -85 210 -75 153 -148 254 -283 393 -77 79 -96 93 -96
73z"/>
<path d="M6398 17593 c-10 -2 -18 -8 -18 -13 0 -13 88 -50 119 -50 42 0 105
-20 119 -38 14 -19 16 -128 2 -137 -7 -4 -7 -12 0 -25 5 -10 10 -37 10 -59 0
-46 18 -93 34 -88 12 4 32 97 46 212 6 44 12 94 15 110 4 20 -1 40 -14 63
l-21 32 -137 -1 c-76 -1 -146 -3 -155 -6z"/>
</g>
</svg>
