<?xml version="1.0" standalone="no"?>
<!DOCTYPE svg PUBLIC "-//W3C//DTD SVG 20010904//EN"
 "http://www.w3.org/TR/2001/REC-SVG-20010904/DTD/svg10.dtd">
<svg version="1.0" xmlns="http://www.w3.org/2000/svg"
 width="300.000000pt" height="526.000000pt" viewBox="0 0 300.000000 526.000000"
 preserveAspectRatio="xMidYMid meet">
<metadata>
Created by potrace 1.10, written by Peter Selinger 2001-2011
</metadata>
<g transform="translate(0.000000,526.000000) scale(0.100000,-0.100000)"
fill="#000000" stroke="none">
<path d="M1580 4719 c-163 -15 -332 -64 -490 -144 -352 -178 -593 -516 -666
-935 -13 -73 -18 -153 -18 -265 1 -242 37 -390 142 -580 129 -232 234 -344
657 -695 432 -359 505 -460 492 -688 -6 -111 -25 -171 -82 -257 -100 -150
-282 -212 -429 -146 -57 25 -119 96 -145 167 -30 80 -36 169 -17 287 15 101
14 119 -12 150 -14 16 -45 17 -391 17 -387 -1 -387 -1 -418 -41 -20 -25 -46
-243 -47 -389 -1 -288 84 -511 264 -691 189 -189 459 -289 781 -289 531 1 983
270 1208 718 45 89 85 207 117 347 26 109 28 138 29 315 0 214 -10 271 -75
416 -100 222 -249 383 -747 806 -193 165 -342 312 -393 390 -20 31 -47 88 -60
128 -20 62 -22 85 -18 178 8 152 46 249 132 337 76 77 142 105 249 105 160 -1
263 -99 287 -273 8 -57 7 -104 -5 -207 -9 -73 -13 -141 -9 -152 3 -10 17 -23
31 -29 13 -5 181 -9 379 -9 378 0 399 2 424 50 14 26 40 267 40 375 0 106 -22
254 -51 345 -113 349 -411 597 -780 649 -113 15 -274 20 -379 10z m373 -44
c117 -17 173 -35 287 -88 273 -126 456 -372 508 -680 9 -58 9 -357 -1 -442
-10 -90 -22 -120 -53 -134 -37 -17 -714 -15 -737 2 -16 11 -17 21 -6 110 6 53
9 145 7 204 -3 93 -8 115 -31 160 -36 69 -80 118 -136 151 -42 25 -55 27 -151
27 -128 0 -175 -19 -263 -106 -69 -69 -111 -153 -132 -263 -27 -140 -16 -242
38 -359 24 -52 128 -186 189 -243 89 -83 174 -158 338 -298 110 -94 134 -115
294 -261 211 -193 344 -387 399 -580 31 -109 35 -363 8 -520 -61 -362 -225
-641 -497 -846 -149 -112 -304 -183 -489 -224 -147 -33 -419 -43 -535 -20 -14
3 -41 8 -60 11 -64 11 -192 55 -264 91 -247 125 -413 345 -467 623 -30 151 -3
553 39 590 15 13 70 15 390 12 l373 -2 -7 -159 c-9 -225 14 -310 113 -402 64
-60 130 -82 227 -77 219 11 396 231 396 493 0 174 -65 288 -265 469 -118 106
-108 98 -340 290 -322 267 -460 424 -574 649 -116 227 -144 467 -95 787 52
340 233 634 504 819 171 117 345 186 550 216 118 18 326 18 443 0z"/>
<path d="M2670 4285 c8 -11 33 -40 55 -65 45 -50 101 -133 139 -207 85 -168
116 -443 82 -716 -20 -158 -18 -157 -209 -157 -83 0 -148 -2 -146 -5 3 -2 72
-5 153 -6 144 -1 149 0 173 23 27 28 38 84 51 261 16 215 -15 426 -84 583 -36
83 -124 211 -180 264 -26 25 -42 36 -34 25z"/>
<path d="M136 3813 c-6 -14 -5 -15 5 -6 7 7 10 15 7 18 -3 3 -9 -2 -12 -12z"/>
<path d="M1750 3799 c-16 -5 -4 -6 35 -2 33 3 62 7 64 9 8 8 -74 2 -99 -7z"/>
<path d="M1670 3776 c-55 -29 -140 -103 -140 -122 0 -8 -4 -14 -9 -14 -18 0
-70 -146 -81 -227 -11 -81 -8 -201 5 -222 3 -6 3 -15 0 -21 -3 -5 -3 -10 2
-10 4 0 16 -21 27 -46 10 -25 20 -43 22 -41 2 2 -5 25 -16 50 -12 26 -26 84
-32 129 -13 104 6 228 51 324 35 76 117 162 179 189 23 10 42 22 42 27 0 10 3
11 -50 -16z"/>
<path d="M2111 3255 c-9 -39 -10 -92 -2 -104 12 -18 82 -27 156 -20 58 5 57 6
-26 7 -50 1 -92 7 -102 15 -10 7 -17 31 -20 62 -2 28 -4 46 -6 40z"/>
<path d="M2332 3135 c8 -8 248 -11 248 -2 0 4 -57 7 -127 7 -69 0 -124 -2
-121 -5z"/>
<path d="M2470 2126 c125 -161 183 -261 220 -377 38 -117 49 -203 45 -344 -4
-146 -42 -345 -90 -481 -125 -349 -382 -618 -730 -764 -118 -50 -331 -90 -488
-92 -86 -1 -110 -4 -82 -9 97 -18 358 16 502 66 134 45 163 58 267 122 80 48
141 97 245 193 122 113 258 343 313 530 107 362 102 650 -15 892 -48 98 -125
212 -193 284 l-55 59 61 -79z"/>
<path d="M626 1687 c3 -10 9 -15 12 -12 3 3 0 11 -7 18 -10 9 -11 8 -5 -6z"/>
<path d="M1113 1450 c99 -10 102 -15 87 -142 -6 -56 -14 -112 -17 -123 -3 -13
-2 -16 4 -10 8 8 33 187 33 233 0 6 -9 21 -20 32 -16 16 -32 20 -87 19 l-68
-2 68 -7z"/>
<path d="M1187 1153 c-6 -10 10 -113 18 -122 6 -5 -4 120 -10 127 -2 2 -5 0
-8 -5z"/>
<path d="M681 278 c54 -49 163 -110 259 -147 83 -33 272 -72 334 -70 17 0 -17
9 -75 19 -205 34 -329 81 -469 174 -56 37 -73 45 -49 24z"/>
</g>
</svg>
