<?xml version="1.0" standalone="no"?>
<!DOCTYPE svg PUBLIC "-//W3C//DTD SVG 20010904//EN"
 "http://www.w3.org/TR/2001/REC-SVG-20010904/DTD/svg10.dtd">
<svg version="1.0" xmlns="http://www.w3.org/2000/svg"
 width="300.000000pt" height="526.000000pt" viewBox="0 0 300.000000 526.000000"
 preserveAspectRatio="xMidYMid meet">
<metadata>
Created by potrace 1.10, written by Peter Selinger 2001-2011
</metadata>
<g transform="translate(0.000000,526.000000) scale(0.050000,-0.050000)"
fill="#000000" stroke="none">
<path d="M3150 9439 c-1389 -139 -2338 -1226 -2337 -2679 1 -974 342 -1532
1538 -2512 865 -710 1029 -913 1045 -1298 25 -579 -373 -1043 -841 -981 -401
53 -588 402 -508 947 33 229 27 287 -35 329 -40 27 -1518 17 -1552 -11 -66
-53 -81 -96 -113 -326 -205 -1462 528 -2399 1925 -2461 1629 -73 2851 1113
2851 2765 0 848 -268 1243 -1653 2432 -814 699 -968 926 -945 1392 27 543 322
885 761 884 440 -2 640 -337 565 -946 -39 -314 -39 -306 9 -354 45 -45 1436
-63 1548 -21 202 77 232 1056 48 1580 -314 892 -1191 1371 -2306 1260z m882
-297 c680 -168 1116 -571 1267 -1172 81 -322 54 -1100 -40 -1150 -41 -22 -807
-27 -1045 -7 l-152 13 -6 352 c-9 506 -166 793 -506 921 -834 313 -1567 -857
-1079 -1721 103 -182 535 -679 565 -649 5 5 26 -12 47 -39 21 -26 220 -204
443 -394 897 -767 1175 -1094 1312 -1543 61 -199 61 -861 1 -1159 -62 -303
-263 -803 -360 -894 -6 -5 -43 -56 -84 -112 -318 -439 -910 -785 -1502 -877
-1148 -179 -2014 237 -2298 1102 -47 143 -69 991 -30 1132 l16 55 619 0 620 0
0 -245 c0 -268 26 -397 112 -567 469 -928 1706 -364 1664 760 -18 467 -204
711 -1140 1491 -784 653 -997 888 -1236 1360 -227 451 -253 1283 -57 1871 257
772 962 1353 1807 1488 77 12 163 26 190 31 134 23 716 -8 872 -47z"/>
<path d="M5614 8204 c65 -133 136 -328 154 -424 5 -27 19 -81 31 -120 11 -38
21 -99 21 -134 0 -35 9 -69 19 -75 11 -7 12 -31 4 -54 -8 -22 -10 -85 -3 -138
7 -53 7 -94 1 -90 -6 4 -8 -80 -4 -186 10 -252 -30 -512 -88 -580 l-43 -50
-622 -12 c-660 -12 -770 -3 -826 66 -43 53 -71 8 -50 -78 21 -83 77 -89 810
-89 897 0 859 -16 903 369 72 629 -11 1166 -240 1551 -108 182 -147 207 -67
44z"/>
<path d="M3389 7630 c-148 -44 -389 -220 -389 -285 0 -13 -16 -32 -35 -43 -19
-12 -28 -21 -20 -21 8 -1 -3 -35 -25 -76 -22 -41 -40 -86 -40 -100 0 -14 -8
-25 -18 -25 -45 0 -60 -397 -20 -565 36 -155 51 -126 51 101 1 501 295 960
617 964 59 1 109 35 69 47 -77 25 -116 25 -190 3z"/>
<path d="M5147 3965 c220 -440 303 -1087 204 -1595 -15 -77 -23 -146 -19 -154
5 -7 0 -19 -12 -26 -11 -7 -20 -30 -20 -52 0 -25 -9 -35 -23 -26 -16 10 -16 3
-2 -23 15 -26 13 -48 -7 -79 -15 -23 -30 -61 -34 -85 -3 -24 -13 -50 -20 -58
-8 -7 -14 -26 -14 -42 0 -38 -99 -252 -124 -267 -11 -7 -18 -16 -16 -20 10
-20 -69 -155 -84 -146 -9 6 -16 4 -14 -6 7 -41 -8 -69 -104 -188 -168 -212
-277 -321 -301 -306 -13 8 -18 6 -11 -5 20 -33 -142 -180 -173 -157 -7 6 -8 4
-3 -3 15 -20 -94 -87 -117 -73 -10 7 -13 2 -5 -11 8 -13 2 -23 -15 -23 -16 0
-34 -14 -41 -31 -6 -17 -21 -26 -32 -19 -11 7 -20 4 -20 -6 0 -10 -36 -34 -80
-54 -44 -20 -80 -42 -80 -50 0 -7 -12 -13 -28 -13 -15 0 -70 -20 -122 -45 -52
-24 -108 -40 -123 -33 -16 6 -24 3 -18 -7 5 -9 -30 -28 -79 -42 -50 -14 -90
-35 -90 -48 0 -12 -9 -8 -20 8 -13 20 -19 22 -20 5 0 -15 -27 -25 -69 -25 -37
0 -90 -8 -117 -19 -27 -10 -108 -21 -180 -25 -71 -3 -127 -10 -124 -16 50 -83
-899 33 -1225 149 -214 76 -231 75 -70 -6 753 -378 1862 -296 2605 192 1104
727 1543 2360 907 3380 -103 167 -129 188 -60 50z"/>
<path d="M2200 2908 c0 -7 26 -43 59 -79 55 -64 58 -76 59 -260 1 -193 26
-337 63 -359 11 -8 19 34 19 104 0 64 10 208 23 321 29 247 11 285 -136 285
-48 0 -87 -6 -87 -12z"/>
</g>
</svg>
