<svg xmlns="http://www.w3.org/2000/svg" xmlns:xlink="http://www.w3.org/1999/xlink" width="500" zoomAndPan="magnify" viewBox="0 0 375 374.999991" height="500" preserveAspectRatio="xMidYMid meet" version="1.0"><defs><g/></defs><g fill="#5ce1e6" fill-opacity="0.4"><g transform="translate(147.716292, 238.280766)"><g><path d="M 45.734375 1.859375 C 33.816406 1.859375 24.335938 -1.46875 17.296875 -8.125 C 10.253906 -14.78125 6.734375 -23.523438 6.734375 -34.359375 C 6.734375 -35.753906 6.890625 -37.84375 7.203125 -40.625 L 8.125 -47.359375 C 8.28125 -48.140625 8.628906 -48.800781 9.171875 -49.34375 C 9.710938 -49.882812 10.367188 -50.15625 11.140625 -50.15625 L 36.921875 -50.15625 C 38.617188 -50.15625 39.46875 -49.222656 39.46875 -47.359375 L 38.765625 -42.25 C 38.617188 -41.632812 38.546875 -40.707031 38.546875 -39.46875 C 38.546875 -35.445312 39.550781 -32.234375 41.5625 -29.828125 C 43.570312 -27.429688 46.203125 -26.234375 49.453125 -26.234375 C 53.472656 -26.234375 56.914062 -27.894531 59.78125 -31.21875 C 62.644531 -34.550781 64.078125 -38.691406 64.078125 -43.640625 C 64.078125 -47.671875 62.757812 -51.234375 60.125 -54.328125 C 57.5 -57.421875 52.472656 -61.988281 45.046875 -68.03125 C 38.847656 -72.976562 33.8125 -77.425781 29.9375 -81.375 C 26.070312 -85.320312 22.785156 -90.039062 20.078125 -95.53125 C 17.367188 -101.03125 16.015625 -107.335938 16.015625 -114.453125 C 16.015625 -124.210938 18.144531 -132.882812 22.40625 -140.46875 C 26.664062 -148.050781 32.546875 -153.929688 40.046875 -158.109375 C 47.554688 -162.285156 55.953125 -164.375 65.234375 -164.375 C 77.160156 -164.375 86.644531 -160.929688 93.6875 -154.046875 C 100.726562 -147.160156 104.25 -137.988281 104.25 -126.53125 C 104.25 -125.132812 104.09375 -122.890625 103.78125 -119.796875 L 103.078125 -114.234375 C 102.929688 -113.453125 102.546875 -112.789062 101.921875 -112.25 C 101.304688 -111.707031 100.609375 -111.4375 99.828125 -111.4375 L 74.0625 -111.4375 C 73.289062 -111.4375 72.671875 -111.707031 72.203125 -112.25 C 71.742188 -112.789062 71.585938 -113.453125 71.734375 -114.234375 L 72.4375 -120.5 C 72.59375 -121.113281 72.671875 -122.117188 72.671875 -123.515625 C 72.671875 -127.378906 71.703125 -130.472656 69.765625 -132.796875 C 67.828125 -135.117188 65.15625 -136.28125 61.75 -136.28125 C 57.726562 -136.28125 54.363281 -134.613281 51.65625 -131.28125 C 48.945312 -127.957031 47.59375 -123.507812 47.59375 -117.9375 C 47.59375 -114.226562 48.867188 -110.707031 51.421875 -107.375 C 53.972656 -104.050781 58.65625 -99.523438 65.46875 -93.796875 C 73.207031 -87.296875 79.050781 -82.070312 83 -78.125 C 86.945312 -74.175781 90.082031 -69.878906 92.40625 -65.234375 C 94.726562 -60.597656 95.890625 -55.257812 95.890625 -49.21875 C 95.890625 -47.976562 95.734375 -45.8125 95.421875 -42.71875 C 93.722656 -29.09375 88.304688 -18.253906 79.171875 -10.203125 C 70.035156 -2.160156 58.890625 1.859375 45.734375 1.859375 Z M 45.734375 1.859375 "/></g></g></g><g fill="#545454" fill-opacity="1"><g transform="translate(137.455062, 228.019545)"><g><path d="M 45.734375 1.859375 C 33.816406 1.859375 24.335938 -1.46875 17.296875 -8.125 C 10.253906 -14.78125 6.734375 -23.523438 6.734375 -34.359375 C 6.734375 -35.753906 6.890625 -37.84375 7.203125 -40.625 L 8.125 -47.359375 C 8.28125 -48.140625 8.628906 -48.800781 9.171875 -49.34375 C 9.710938 -49.882812 10.367188 -50.15625 11.140625 -50.15625 L 36.921875 -50.15625 C 38.617188 -50.15625 39.46875 -49.222656 39.46875 -47.359375 L 38.765625 -42.25 C 38.617188 -41.632812 38.546875 -40.707031 38.546875 -39.46875 C 38.546875 -35.445312 39.550781 -32.234375 41.5625 -29.828125 C 43.570312 -27.429688 46.203125 -26.234375 49.453125 -26.234375 C 53.472656 -26.234375 56.914062 -27.894531 59.78125 -31.21875 C 62.644531 -34.550781 64.078125 -38.691406 64.078125 -43.640625 C 64.078125 -47.671875 62.757812 -51.234375 60.125 -54.328125 C 57.5 -57.421875 52.472656 -61.988281 45.046875 -68.03125 C 38.847656 -72.976562 33.8125 -77.425781 29.9375 -81.375 C 26.070312 -85.320312 22.785156 -90.039062 20.078125 -95.53125 C 17.367188 -101.03125 16.015625 -107.335938 16.015625 -114.453125 C 16.015625 -124.210938 18.144531 -132.882812 22.40625 -140.46875 C 26.664062 -148.050781 32.546875 -153.929688 40.046875 -158.109375 C 47.554688 -162.285156 55.953125 -164.375 65.234375 -164.375 C 77.160156 -164.375 86.644531 -160.929688 93.6875 -154.046875 C 100.726562 -147.160156 104.25 -137.988281 104.25 -126.53125 C 104.25 -125.132812 104.09375 -122.890625 103.78125 -119.796875 L 103.078125 -114.234375 C 102.929688 -113.453125 102.546875 -112.789062 101.921875 -112.25 C 101.304688 -111.707031 100.609375 -111.4375 99.828125 -111.4375 L 74.0625 -111.4375 C 73.289062 -111.4375 72.671875 -111.707031 72.203125 -112.25 C 71.742188 -112.789062 71.585938 -113.453125 71.734375 -114.234375 L 72.4375 -120.5 C 72.59375 -121.113281 72.671875 -122.117188 72.671875 -123.515625 C 72.671875 -127.378906 71.703125 -130.472656 69.765625 -132.796875 C 67.828125 -135.117188 65.15625 -136.28125 61.75 -136.28125 C 57.726562 -136.28125 54.363281 -134.613281 51.65625 -131.28125 C 48.945312 -127.957031 47.59375 -123.507812 47.59375 -117.9375 C 47.59375 -114.226562 48.867188 -110.707031 51.421875 -107.375 C 53.972656 -104.050781 58.65625 -99.523438 65.46875 -93.796875 C 73.207031 -87.296875 79.050781 -82.070312 83 -78.125 C 86.945312 -74.175781 90.082031 -69.878906 92.40625 -65.234375 C 94.726562 -60.597656 95.890625 -55.257812 95.890625 -49.21875 C 95.890625 -47.976562 95.734375 -45.8125 95.421875 -42.71875 C 93.722656 -29.09375 88.304688 -18.253906 79.171875 -10.203125 C 70.035156 -2.160156 58.890625 1.859375 45.734375 1.859375 Z M 45.734375 1.859375 "/></g></g></g><g fill="#ffffff" fill-opacity="1"><g transform="translate(119.846868, 303.716787)"><g><path d="M 13.546875 -56.234375 L 17.703125 -56.234375 L 18.75 0 L 14.578125 0 L 14.578125 -38.53125 L 11.453125 -3.125 L 9.375 -3.125 L 6.25 -38.53125 L 6.25 0 L 2.078125 0 L 3.125 -56.234375 L 7.296875 -56.234375 L 10.421875 -17.703125 Z M 13.546875 -56.234375 "/></g></g></g><g fill="#ffffff" fill-opacity="1"><g transform="translate(147.737002, 303.716787)"><g><path d="M 14.578125 -33.328125 L 10.421875 -33.328125 L 10.421875 -51.03125 C 10.421875 -51.550781 10.359375 -51.976562 10.234375 -52.3125 C 10.117188 -52.65625 9.960938 -52.914062 9.765625 -53.09375 C 9.566406 -53.28125 9.34375 -53.410156 9.09375 -53.484375 C 8.84375 -53.566406 8.585938 -53.609375 8.328125 -53.609375 C 8.066406 -53.609375 7.8125 -53.566406 7.5625 -53.484375 C 7.3125 -53.410156 7.085938 -53.28125 6.890625 -53.09375 C 6.703125 -52.914062 6.546875 -52.65625 6.421875 -52.3125 C 6.304688 -51.976562 6.25 -51.550781 6.25 -51.03125 L 6.25 -5.203125 C 6.25 -4.941406 6.257812 -4.632812 6.28125 -4.28125 C 6.300781 -3.925781 6.375 -3.582031 6.5 -3.25 C 6.632812 -2.925781 6.84375 -2.648438 7.125 -2.421875 C 7.40625 -2.191406 7.804688 -2.078125 8.328125 -2.078125 C 8.847656 -2.078125 9.25 -2.191406 9.53125 -2.421875 C 9.8125 -2.648438 10.015625 -2.925781 10.140625 -3.25 C 10.273438 -3.582031 10.351562 -3.925781 10.375 -4.28125 C 10.40625 -4.632812 10.421875 -4.941406 10.421875 -5.203125 L 10.421875 -27.078125 L 14.578125 -27.078125 L 14.578125 -5.203125 C 14.578125 -4.941406 14.546875 -4.46875 14.484375 -3.78125 C 14.421875 -3.101562 14.191406 -2.40625 13.796875 -1.6875 C 13.410156 -0.976562 12.789062 -0.347656 11.9375 0.203125 C 11.09375 0.765625 9.890625 1.046875 8.328125 1.046875 C 6.765625 1.046875 5.5625 0.765625 4.71875 0.203125 C 3.875 -0.347656 3.253906 -0.976562 2.859375 -1.6875 C 2.472656 -2.40625 2.242188 -3.101562 2.171875 -3.78125 C 2.109375 -4.46875 2.078125 -4.941406 2.078125 -5.203125 L 2.078125 -51.03125 C 2.078125 -52.03125 2.257812 -52.894531 2.625 -53.625 C 3 -54.351562 3.484375 -54.941406 4.078125 -55.390625 C 4.679688 -55.847656 5.347656 -56.1875 6.078125 -56.40625 C 6.816406 -56.625 7.566406 -56.734375 8.328125 -56.734375 C 9.128906 -56.734375 9.90625 -56.613281 10.65625 -56.375 C 11.40625 -56.132812 12.070312 -55.773438 12.65625 -55.296875 C 13.25 -54.816406 13.71875 -54.21875 14.0625 -53.5 C 14.40625 -52.789062 14.578125 -51.96875 14.578125 -51.03125 Z M 14.578125 -33.328125 "/></g></g></g><g fill="#ffffff" fill-opacity="1"><g transform="translate(171.462494, 303.716787)"><g><path d="M 14.578125 0 L 10.421875 0 L 5.203125 -41.65625 L 5.203125 0 L 2.078125 0 L 2.078125 -56.234375 L 6.25 -56.234375 L 11.453125 -14.578125 L 11.453125 -56.234375 L 14.578125 -56.234375 Z M 14.578125 0 "/></g></g></g><g fill="#ffffff" fill-opacity="1"><g transform="translate(195.18799, 303.716787)"><g><path d="M 6.25 -5.203125 C 6.25 -4.941406 6.257812 -4.632812 6.28125 -4.28125 C 6.300781 -3.925781 6.375 -3.582031 6.5 -3.25 C 6.632812 -2.925781 6.84375 -2.648438 7.125 -2.421875 C 7.40625 -2.191406 7.804688 -2.078125 8.328125 -2.078125 C 8.847656 -2.078125 9.25 -2.191406 9.53125 -2.421875 C 9.8125 -2.648438 10.015625 -2.925781 10.140625 -3.25 C 10.273438 -3.582031 10.351562 -3.925781 10.375 -4.28125 C 10.40625 -4.632812 10.421875 -4.941406 10.421875 -5.203125 L 10.421875 -56.234375 L 14.578125 -56.234375 L 14.578125 -5.203125 C 14.578125 -4.941406 14.546875 -4.46875 14.484375 -3.78125 C 14.421875 -3.101562 14.191406 -2.40625 13.796875 -1.6875 C 13.410156 -0.976562 12.789062 -0.347656 11.9375 0.203125 C 11.09375 0.765625 9.890625 1.046875 8.328125 1.046875 C 6.765625 1.046875 5.5625 0.765625 4.71875 0.203125 C 3.875 -0.347656 3.253906 -0.976562 2.859375 -1.6875 C 2.472656 -2.40625 2.242188 -3.101562 2.171875 -3.78125 C 2.109375 -4.46875 2.078125 -4.941406 2.078125 -5.203125 L 2.078125 -56.234375 L 6.25 -56.234375 Z M 6.25 -5.203125 "/></g></g></g><g fill="#ffffff" fill-opacity="1"><g transform="translate(218.91348, 303.716787)"><g><path d="M 13.546875 -56.234375 L 13.546875 -53.109375 L 9.375 -53.109375 L 9.375 0 L 5.203125 0 L 5.203125 -53.109375 L 1.046875 -53.109375 L 1.046875 -56.234375 Z M 13.546875 -56.234375 "/></g></g></g><g fill="#ffffff" fill-opacity="1"><g transform="translate(240.556649, 303.716787)"><g><path d="M 13.546875 -56.234375 L 13.546875 -53.109375 L 9.375 -53.109375 L 9.375 0 L 5.203125 0 L 5.203125 -53.109375 L 1.046875 -53.109375 L 1.046875 -56.234375 Z M 13.546875 -56.234375 "/></g></g></g></svg>